nColumns=19
nRows=45
DataType=double
version=3
OpenSimVersion=4.1
endheader
time	ground_force_calcn_r_vx	ground_force_calcn_r_vy	ground_force_calcn_r_vz	ground_force_calcn_r_px	ground_force_calcn_r_py	ground_force_calcn_r_pz	ground_force_calcn_r_mx	ground_force_calcn_r_my	ground_force_calcn_r_mz	ground_force_calcn_l_vx	ground_force_calcn_l_vy	ground_force_calcn_l_vz	ground_force_calcn_l_px	ground_force_calcn_l_py	ground_force_calcn_l_pz	ground_force_calcn_l_mx	ground_force_calcn_l_my	ground_force_calcn_l_mz
0.1	0	0	0	0	0	0	0	0	0	0	0	0	0	0	0	0	0	0
0.108333	-3.48081	17.6782	-1.58255	1.03879	0	-0.218996	-0.545923	2.77261	-0.248203	0	0	0	0	0	0	0	0	0
0.116667	-9.20011	48.4662	-6.40524	1.12299	0	-0.268557	-0.672605	3.54328	-0.468277	0	0	0	0	0	0	0	0	0
0.125	-19.025	134.92	-11.075	1.14801	0	-0.283013	-0.562261	3.9874	-0.327308	0	0	0	0	0	0	0	0	0
0.133333	-32.9984	316.401	-11.8977	1.15807	0	-0.287647	-0.378829	3.63236	-0.136589	0	0	0	0	0	0	0	0	0
0.141667	-52.6005	586.603	-4.601	1.15769	0	-0.289423	-0.214552	2.39269	-0.018767	0	0	0	0	0	0	0	0	0
0.15	-82.4828	850.51	11.2649	1.15104	0	-0.28996	-0.0499139	0.51468	0.00681686	0	0	0	0	0	0	0	0	0
0.158333	-123.33	1002.01	27.9448	1.14131	0	-0.290051	0.189186	-1.53707	-0.0428668	0	0	0	0	0	0	0	0	0
0.166667	-166.062	1054.15	33.5483	1.12842	0	-0.290637	0.516123	-3.27632	-0.104269	0	0	0	0	0	0	0	0	0
0.175	-202.157	1108.08	24.5592	1.11109	0	-0.292298	0.806562	-4.42097	-0.0979855	0	0	0	0	0	0	0	0	0
0.183333	-224.498	1222.51	11.5415	1.09055	0	-0.293674	0.908581	-4.94769	-0.0467106	0	0	0	0	0	0	0	0	0
0.191667	-228.49	1384.89	7.72163	1.06807	0	-0.293231	0.814174	-4.93476	-0.0275143	0	0	0	0	0	0	0	0	0
0.2	-218.953	1553.15	13.6036	1.04446	0	-0.291683	0.62453	-4.43012	-0.0388022	0	0	0	0	0	0	0	0	0
0.208333	-196.354	1689.9	17.5694	1.02004	0	-0.290594	0.401659	-3.45683	-0.0359398	0	0	0	0	0	0	0	0	0
0.216667	-162.231	1781.28	11.0308	0.994892	0	-0.290562	0.187318	-2.05674	-0.0127366	0	0	0	0	0	0	0	0	0
0.225	-124.789	1833.51	-1.95558	0.969533	0	-0.290775	0.0239147	-0.351376	0.00037477	0	0	0	0	0	0	0	0	0
0.233333	-89.7895	1857.52	-11.8234	0.94424	0	-0.289992	-0.0702292	1.45287	-0.00924775	0	0	0	0	0	0	0	0	0
0.241667	-56.4713	1855.33	-15.8898	0.919123	0	-0.288196	-0.0950536	3.12292	-0.026746	0	0	0	0	0	0	0	0	0
0.25	-20.3877	1824.1	-19.225	0.893651	0	-0.28655	-0.0496606	4.44317	-0.0468286	0	0	0	0	0	0	0	0	0
0.258333	18.2036	1765.54	-24.9978	0.867481	0	-0.285827	0.0538617	5.22395	-0.0739645	0	0	0	0	0	0	0	0	0
0.266667	55.7729	1687.14	-29.2577	0.841091	0	-0.285525	0.17587	5.32009	-0.092259	0	0	0	0	0	0	0	0	0
0.275	93.3196	1595.08	-26.5299	0.814509	0	-0.284939	0.273749	4.67908	-0.0778243	0	0	0	0	0	0	0	0	0
0.283333	132.778	1487.12	-16.7887	0.787335	0	-0.284392	0.302235	3.38505	-0.0382153	0	0	0	0	0	0	0	0	0
0.291667	170.653	1357.17	-4.47554	0.759574	0	-0.284736	0.208995	1.6621	-0.0054811	0	0	0	0	0	0	0	0	0
0.3	200.822	1204.22	7.05919	0.731212	0	-0.286244	-0.0296786	-0.177966	-0.00104325	0	0	0	0	0	0	0	0	0
0.308333	219.211	1035.78	17.4964	0.702337	0	-0.288338	-0.384077	-1.81478	-0.0306552	0	0	0	0	0	0	0	0	0
0.316667	224.318	862.019	26.9999	0.673914	0	-0.290068	-0.776979	-2.98581	-0.0935206	0	0	0	0	0	0	0	0	0
0.325	214.102	687.824	34.0398	0.647678	0	-0.290962	-1.10062	-3.53584	-0.174985	0	0	0	0	0	0	0	0	0
0.333333	188.86	517.733	36.3598	0.624269	0	-0.291426	-1.25613	-3.44351	-0.241834	0	0	0	0	0	0	0	0	0
0.341667	152.824	362.387	33.3725	0.60349	0	-0.291728	-1.18927	-2.82009	-0.259705	0	0	0	0	0	0	0	0	0
0.35	112.367	233.798	26.9553	0.586486	0	-0.290559	-0.90258	-1.87797	-0.216516	0	0	0	0	0	0	0	0	0
0.358333	74.1845	138.361	19.9107	0.576206	0	-0.283991	-0.459802	-0.857576	-0.123408	0	0	0	0	0	0	0	0	0
0.366667	42.7988	74.9837	14.0175	0.577171	0	-0.265954	0.0299978	0.0525563	0.00982494	0	0	0	0	0	0	0	0	0
0.375	20.9154	37.762	9.63953	0.591763	0	-0.230603	0.431154	0.778435	0.198712	0	0	0	0	0	0	0	0	0
0.383333	8.01074	18.7665	6.58711	0.602726	0	-0.179766	0.577861	1.35373	0.475166	0	0	0	0	0	0	0	0	0
0.391667	1.39946	10.7905	4.68529	0.565165	0	-0.152784	0.230495	1.77722	0.771681	0	0	0	0	0	0	0	0	0
0.4	0	0	0	0	0	0	0	0	0	0	0	0	0	0	0	0	0	0
0.408333	0	0	0	0	0	0	0	0	0	0	0	0	0	0	0	0	0	0
0.416667	0	0	0	0	0	0	0	0	0	0	0	0	0	0	0	0	0	0
0.425	0	0	0	0	0	0	0	0	0	0	0	0	0	0	0	0	0	0
0.433333	0	0	0	0	0	0	0	0	0	0	0	0	0	0	0	0	0	0
0.441667	0	0	0	0	0	0	0	0	0	0	0	0	0	0	0	0	0	0
0.45	0	0	0	0	0	0	0	0	0	0	0	0	0	0	0	0	0	0
0.458333	0	0	0	0	0	0	0	0	0	0	0	0	0	0	0	0	0	0
0.466667	0	0	0	0	0	0	0	0	0	0	0	0	0	0	0	0	0	0
